<svg id="Calque_1" data-name="Calque 1" xmlns="http://www.w3.org/2000/svg" xmlns:xlink="http://www.w3.org/1999/xlink" viewBox="0 0 96 81"><defs><style>.cls-1{fill:url(#Dégradé_sans_nom_16);}.cls-2{mask:url(#mask);}.cls-3,.cls-4,.cls-7{fill:none;}.cls-3,.cls-4{stroke:#f2f2f2;}.cls-3{stroke-width:4.7px;stroke-dasharray:4 2;}.cls-4,.cls-7{stroke-linecap:round;stroke-linejoin:round;}.cls-4{stroke-width:3px;}.cls-5{fill:#fff;}.cls-6{fill:#30b45e;}.cls-7{stroke:#6cc573;}.cls-8{fill:#6cc573;}</style><linearGradient id="Dégradé_sans_nom_16" x1="38.22" y1="-9.44" x2="38.22" y2="87.33" gradientUnits="userSpaceOnUse"><stop offset="0" stop-color="#fff"/><stop offset="0.2" stop-color="#fcfcfc"/><stop offset="0.33" stop-color="#f3f3f3"/><stop offset="0.45" stop-color="#e4e4e4"/><stop offset="0.55" stop-color="#cecece"/><stop offset="0.65" stop-color="#b2b2b2"/><stop offset="0.74" stop-color="#909090"/><stop offset="0.83" stop-color="#676767"/><stop offset="0.91" stop-color="#383838"/><stop offset="0.99" stop-color="#040404"/><stop offset="1"/></linearGradient><mask id="mask" x="-44.76" y="-9.44" width="165.96" height="96.78" maskUnits="userSpaceOnUse"><rect class="cls-1" x="-44.76" y="-9.44" width="165.96" height="96.78"/></mask></defs><g class="cls-2"><path class="cls-3" d="M79.5,22.84l.39-.73"/><path class="cls-3" d="M75.72,22.61l-.28.71"/><path class="cls-4" d="M48.88,29.5l-.69-.38L41,24"/><path class="cls-4" d="M59.1,60.06l4.07-4.28.44-.47"/><path class="cls-4" d="M62.5,62.55l3.92-4.15.27-.15"/><path class="cls-4" d="M77.15,48.5l-2.39,4.07L72.85,54.7"/><path class="cls-4" d="M66.6,58.25h.24l2,1.86"/><path class="cls-4" d="M66.6,58.25v-.31"/><path class="cls-4" d="M68.92,60.15l2.13-3.46,1.8-2"/><path class="cls-4" d="M68.92,60.15l-2.71,4.79"/><path class="cls-4" d="M63.6,55.31,63.26,55,60.7,52.77l-.31-.27"/><path class="cls-4" d="M66.6,57.94l-.18-.16L63.8,55.5l-.2-.18"/><path class="cls-4" d="M72.85,54.71l1.91,1"/><path class="cls-4" d="M54.5,69.3l2.64,1.9,1.65,1.1,5.49,3.31"/><path class="cls-4" d="M41,23.94l-.26-.39-.87-1-4.5-5.64L35,16.64,33,13.94l-.35-.38"/><path class="cls-4" d="M78.16,47.39l.37.89,1.83.83"/><path class="cls-4" d="M84.33,39.94l.54.29,5.85,3.15,2.32.88.6.24"/><path class="cls-4" d="M67.08,71.5,63.3,69.06l-5.7-3.75"/><path class="cls-4" d="M56,57.63l.73.66,2.37,1.77,1.64,1.22,1.2.88.51.39,3.07,2,.69.39,4.29,2.22,3.8,1.93,3.3,1.62,1.51.79,2.29,1.17,1.15.51"/><path class="cls-4" d="M86.5,36.23l-1.75,2.52"/><path class="cls-4" d="M84,39.77l.32.17"/><path class="cls-4" d="M84.74,38.75l-.27.37"/><path class="cls-4" d="M84.5,39.12l-.46.65-.22.31"/><path class="cls-4" d="M83.79,40.08l-.29.42"/><path class="cls-4" d="M83.5,40.5l-4.26,5.71-1,1.17"/><path class="cls-4" d="M80.36,49.11,89.7,53.5l.5.2"/><path class="cls-4" d="M74.76,55.74l11.84,6,.54.27"/><path class="cls-4" d="M78.16,47.39l-1,1.12"/><path class="cls-4" d="M47.76,49.79l.25-.4L58.24,33.5l.33-.51"/><path class="cls-4" d="M35.36,16.86l.24-.52,2.55-6.21.27-.63"/><path class="cls-4" d="M45.13,9.44l-.28.69L40.1,21.94l-.24.59"/><path class="cls-4" d="M31.83,32.77l-.39.41L28.5,36.37l-.27.31"/><path class="cls-4" d="M23.6,63.17l-.44.55-6.45,8.15-.94,1.76-.38.52"/><path class="cls-4" d="M28.25,36.68l-.42-.32L18,29.11l-.46-.39"/><path class="cls-4" d="M52.4,28.43l-.57.37-.34.2-.47.15-2.14.35"/><path class="cls-4" d="M73.6,32l.41.19,5.18,2.42.55.18"/><path class="cls-4" d="M54.82,23.5l.4.18L58,25,70.6,30.64l2,.84.65.28.4.26"/><path class="cls-4" d="M15.94,37.5l.13-.71,1.31-7.55.09-.48"/><path class="cls-4" d="M68.39,40.65,68,40.33l-9-7L58.6,33l-5.86-4.36-.31-.24"/><path class="cls-4" d="M38.67,73.94l.53-.59,2-1.84,10.4-9.63,3.72-3.56.69-.69.5-.58,3.31-3.91.4-.39.18-.25,6.3-9.18,1.7-2.68.27-.46,4.52-7.39.46-.78.25-.51,3.6-7.83.39-.82.3-.73,4.6-10.93.32-.69"/><path class="cls-4" d="M4.4,11.82l.31.38L8.4,16.5l.29.45.16.33"/><path class="cls-4" d="M39.6,41.5l-.56.72-5.24,6.9-.67.89-2.35,3.35-.13.19-.35.81L24,62.64l-.39.53"/><path class="cls-4" d="M48.88,29.5l-.55.41-.48.61L40.09,40.76l-.53.73"/><path class="cls-4" d="M5.81,50.25l.28-.46,4.14-5,.27-.29L15.81,38l.15-.5"/><path class="cls-4" d="M38.67,73.94l-.43-.58L32.5,69.44l-.13-.07-8-5.69-.7-.51-.48-.35-8.12-5.88L10.5,53.6,6.6,50.83l-.8-.58"/><path class="cls-4" d="M23.1,42.5l.32-.36,3.57-4,.57-.71.69-.78"/><path class="cls-4" d="M19.5,17.94l.6.74,2.5,3,.3.35L31.5,32.3l.34.42.6.59,1.44,1.63,5,5.53.62,1"/><path class="cls-4" d="M22.6,21.73l.51-.41,9.49-7.76"/><path class="cls-4" d="M17.5,28.72l.13-.58,1.14-5.94.1-.57.14-.74.37-1.9.15-1"/><path class="cls-4" d="M83.83,8.88l.58-2.76.2-1"/><path class="cls-4" d="M8.85,17.3l.18.35.34.33,8.57,3.42.88.23"/><path class="cls-4" d="M61.43,9.5l.07.81L59.6,14.5l-.25.48-.44.79-.84,1.37-2.9,5.64-.39.76"/><path class="cls-4" d="M77.91,22.85l-.62-.35L76,21.91,63.84,16.82l-3.67-1.54-.78-.34"/><path class="cls-4" d="M15.94,37.5l.41.3,3.93,2.7,2.82,2,.5.4,5.57,4.19,3,2.21.95.7"/><path class="cls-4" d="M19,9.55H61.44"/><path class="cls-4" d="M13.21,9.75l1.66-.14L19,9.55"/><path class="cls-4" d="M61.43,9.5H62.6l7,.08H80.94l1.15.44,1,.49"/><path class="cls-4" d="M19.5,17.94l.18-1,1.19-6.55.16-.8"/><path class="cls-4" d="M79.78,34.81l1.33,1.55,2.19,2.58.4.48"/><path class="cls-4" d="M1.74,27.13l.72.54L6,30.28,15.34,37l.6.43"/><path class="cls-4" d="M83.7,39.4l.31.37"/><path class="cls-4" d="M83.1,10.5l.4-1,.29-.63"/><path class="cls-4" d="M32.6,13.56l.4-.36.49-3,.11-.7"/><path class="cls-4" d="M54.82,23.5l-2.15,4.34-.27.57"/><path class="cls-4" d="M13.21,9.75l.93,1.92,4.65,5.41.69.89"/><path class="cls-4" d="M39.6,41.5,40,42l4.5,4.63.73.77,2.55,2.37.42.39,4,3.71,3.38,3.2.45.54"/><rect class="cls-5" x="18.75" y="53.25" width="2.5" height="2.5"/><path class="cls-6" d="M20.06,52.39a2,2,0,0,0-2,2c0,1.6,2,3,2,3s2-1.36,2-3A2,2,0,0,0,20.06,52.39Zm.34.91h.22v.34H20.4Zm-.91,0h.22v.34H19.5Zm1.59.68h-.23v.57a.45.45,0,0,1-.45.45h-.23v.57h-.23V55h-.23a.45.45,0,0,1-.45-.45h0V54H19v-.23h2Z"/><path class="cls-6" d="M19.71,54.78h.69a.24.24,0,0,0,.22-.23V54H19.5v.57A.23.23,0,0,0,19.71,54.78Z"/><rect class="cls-5" x="57.06" y="45.59" width="3" height="3"/><path class="cls-6" d="M57.89,47.52a.67.67,0,0,1,.64-.69h0a.67.67,0,0,1,.68.64v.73h.27V46.56H57.62V48.2h.27Z"/><rect class="cls-6" x="57.62" y="46.02" width="1.91" height="0.27"/><path class="cls-6" d="M58.58,44.38a2.48,2.48,0,0,0-2.46,2.45c0,1.91,2.46,3.55,2.46,3.55S61,48.74,61,46.83A2.45,2.45,0,0,0,58.58,44.38ZM59.94,46H59.8v2.18h.14v.27H59v-1a.38.38,0,0,0-.35-.41h0a.38.38,0,0,0-.41.35h0v1h-1v-.27h.14V46h-.14v-.28H60Z"/><polygon class="cls-4" points="6.01 1.5 5.63 1.5 9.8 6.51 11.37 8.51 12.22 9.2 13.22 9.78 6.01 1.5"/><polygon class="cls-4" points="75.05 9.56 75.25 8.71 76.56 2.93 75.05 9.56"/><polygon class="cls-4" points="76.89 1.5 76.56 2.93 76.89 1.5 76.89 1.5"/><polygon class="cls-4" points="72.12 1.5 70.54 8.69 70.38 9.52 72.14 1.5 72.12 1.5"/><polygon class="cls-4" points="63.05 1.5 62.9 2.15 61.42 8.71 61.42 9.46 63.13 1.5 63.05 1.5"/><polygon class="cls-4" points="36.15 1.5 36.21 9.49 36.21 1.5 36.15 1.5"/><polygon class="cls-4" points="22.53 1.5 21.01 9.65 21.16 8.94 22.55 1.5 22.53 1.5"/><polygon class="cls-4" points="63.38 79.5 70.44 67.14 70.09 67.6 69.19 68.78 67.02 71.56 65.29 73.86 64.88 74.51 64.23 75.63 62.97 78.01 62.32 79.5 63.38 79.5"/><polygon class="cls-4" points="13.43 1.5 13.49 1.59 13.94 2.23 13.44 1.5 13.43 1.5"/><polygon class="cls-4" points="18.96 9.55 17.36 7.22 18.41 8.76 18.96 9.55"/><polygon class="cls-4" points="15.81 4.94 15.31 4.19 14.76 3.4 13.94 2.23 17.36 7.22 15.81 4.94"/><polygon class="cls-4" points="80.23 79.5 80.31 79.28 82.24 74.28 82.42 73.79 82.5 73.22 80.22 79.5 80.23 79.5"/><polygon class="cls-4" points="64.94 74.49 68.39 76.4 71.29 77.86 64.94 74.49"/><polygon class="cls-4" points="74.5 79.5 73.75 79.09 71.29 77.86 74.39 79.5 74.5 79.5"/><polygon class="cls-4" points="57.58 65.29 54.51 69.29 51.7 72.94 51.03 73.8 49.3 76.57 48.99 77.26 48.16 79.1 48.01 79.5 48.12 79.5 60.29 61.92 57.94 64.83 57.58 65.29"/><polygon class="cls-4" points="60.74 61.28 60.29 61.92 60.37 61.83 60.74 61.28"/><polygon class="cls-4" points="35.97 79.5 38.67 73.94 38 74.99 36.19 78.76 35.84 79.5 35.97 79.5"/><polygon class="cls-4" points="47.42 79.5 38.67 73.94 39.39 74.43 41.39 75.74 47.32 79.5 47.42 79.5"/><polygon class="cls-4" points="37.26 79.5 36.73 79.12 36.19 78.85 37.21 79.5 37.26 79.5"/><polygon class="cls-4" points="17.59 75.69 15.94 74.56 15.41 74.19 15.03 73.94 9.6 70.3 9.06 69.94 8.5 69.58 6.31 68.29 2.85 66.56 2.11 66.22 1.5 65.93 1.5 67.79 18.5 79.5 18.5 79.5 22.23 79.5 17.59 75.69"/><polygon class="cls-4" points="24.6 79.5 24.6 79.5 31.95 69.87 32.33 69.37 24.6 79.5"/><polygon class="cls-4" points="13 79.5 15.41 74.15 15.07 74.76 12.49 79.5 13 79.5"/><polygon class="cls-4" points="9.06 69.94 8.66 70.92 8.84 70.5 9.06 69.94"/><polygon class="cls-4" points="5.13 79.5 8.66 70.92 7.49 73.6 5.02 78.94 4.8 79.5 5.13 79.5"/><polygon class="cls-4" points="1.5 9.64 13.22 9.71 10.76 9.52 2.76 9.58 2.36 9.58 1.5 9.58 1.5 9.64"/><polygon class="cls-4" points="1.5 16.96 17.47 28.72 16.91 28.3 7.25 21.11 6.5 20.55 5.76 20.02 1.5 16.91 1.5 16.96"/><polygon class="cls-4" points="1.5 25.75 1.5 27.52 1.78 27.13 2.23 26.52 3.48 24.74 5.99 21.25 6.5 20.55 8.38 17.94 8.85 17.33 12.85 11.78 13.17 9.78 1.5 25.75"/><polygon class="cls-4" points="1.5 38.51 8.63 43.64 1.5 38.48 1.5 38.51"/><polygon class="cls-4" points="10.23 44.79 8.63 43.64 9.82 44.5 10.23 44.79"/><polygon class="cls-4" points="83.1 10.52 83.78 10.8 84.09 10.93 83.1 10.52"/><polygon class="cls-4" points="94.5 15.16 93.78 14.85 84.09 10.93 94.5 15.19 94.5 15.16"/><polygon class="cls-4" points="84.21 68.19 84.03 68.86 83.87 69.54 82.6 72.54 82.5 73.18 85.3 65.85 85.21 66.03 84.21 68.19"/><polygon class="cls-4" points="94.5 41.73 85.3 65.85 86.85 62.67 87.17 62.02 87.45 61.29 89.98 54.29 90.24 53.61 90.5 52.89 93.5 44.96 93.69 44.46 93.93 43.78 94.5 42.17 94.5 41.73"/><polygon class="cls-4" points="77.87 22.85 78.6 23.21 79.36 23.43 79.88 23.6 77.87 22.85"/><polygon class="cls-4" points="94.5 28.5 93.25 27.99 91.25 27.35 90.66 27.15 89.66 26.81 79.88 23.6 94.5 29.06 94.5 28.5"/><polygon class="cls-4" points="94.5 36.06 79.76 34.78 81.6 34.94 85.91 35.37 87.06 35.47 87.5 35.47 94.5 36.06 94.5 36.06"/><path class="cls-7" d="M55.92,57.26a109.3,109.3,0,0,0,19.79-29.7"/><circle class="cls-8" cx="18.54" cy="59.29" r="1.06"/><circle class="cls-8" cx="60.89" cy="51.6" r="1.06"/><circle class="cls-8" cx="74.95" cy="28.97" r="1.06"/><rect class="cls-5" x="75.96" y="24.79" width="3.5" height="4"/><path class="cls-6" d="M77.67,23.53a3.24,3.24,0,0,0-3.28,3.23v0h0c0,2.55,3.28,4.73,3.28,4.73s3.27-2.18,3.27-4.73a3.25,3.25,0,0,0-3.26-3.26ZM78.21,25h.36v.55h-.36Zm-1.45,0h.35v.55h-.36Zm2.54,1.09h-.36V27a.73.73,0,0,1-.73.73h-.36v.91h-.37v-.91h-.37a.73.73,0,0,1-.73-.73h0v-.91H76v-.36h3.26Z"/><path class="cls-7" d="M39.6,41.5l-.56.72-5.24,6.9-.67.89-2.35,3.35-.13.19-.35.81L24,62.64l-.39.53"/><path class="cls-7" d="M23.6,63.13,19,59.73v0c1.29,1,2.95,2.18,4.65,3.42Z"/><path class="cls-7" d="M39.6,41.5c4.55,5.86,10.91,10.69,16.32,15.76"/></g></svg>