<svg id="Calque_1" data-name="Calque 1" xmlns="http://www.w3.org/2000/svg" viewBox="0 0 93 78"><defs><style>.cls-1,.cls-2{fill:none;stroke:#f2f2f2;}.cls-1{stroke-width:4.7px;stroke-dasharray:4 2;}.cls-2{stroke-linecap:round;stroke-linejoin:round;stroke-width:3px;}.cls-3{fill:#fff;}.cls-4{fill:#30b45e;}</style></defs><path class="cls-1" d="M78,21.34l.39-.73"/><path class="cls-1" d="M74.22,21.11l-.28.71"/><path class="cls-2" d="M47.38,28l-.69-.38-7.2-5.15"/><path class="cls-2" d="M57.6,58.56l4.07-4.28.44-.47"/><path class="cls-2" d="M61,61.05l3.92-4.15.27-.15"/><path class="cls-2" d="M75.65,47l-2.39,4.07-1.91,2.13"/><path class="cls-2" d="M65.1,56.75h.24l2,1.86"/><path class="cls-2" d="M65.1,56.75v-.31"/><path class="cls-2" d="M67.42,58.65l2.13-3.46,1.8-2"/><path class="cls-2" d="M67.42,58.65l-2.71,4.79"/><path class="cls-2" d="M62.1,53.81l-.34-.29L59.2,51.27,58.89,51"/><path class="cls-2" d="M65.1,56.44l-.18-.16L62.3,54l-.2-.18"/><path class="cls-2" d="M71.35,53.21l1.91,1"/><path class="cls-2" d="M53,67.8l2.64,1.9,1.65,1.1,5.49,3.31"/><path class="cls-2" d="M39.49,22.44l-.26-.39-.87-1-4.5-5.64-.33-.27-2.08-2.7-.35-.38"/><path class="cls-2" d="M76.66,45.89l.37.89,1.83.83"/><path class="cls-2" d="M82.83,38.44l.54.29,5.85,3.15,2.32.88.6.24"/><path class="cls-2" d="M65.58,70,61.8,67.56l-5.7-3.75"/><path class="cls-2" d="M54.5,56.13l.73.66,2.37,1.77,1.64,1.22,1.2.88.51.39,3.07,2,.69.39L69,65.66l3.8,1.93,3.3,1.62,1.51.79,2.29,1.17,1.15.51"/><path class="cls-2" d="M85,34.73l-1.75,2.52"/><path class="cls-2" d="M82.51,38.27l.32.17"/><path class="cls-2" d="M83.24,37.25l-.27.37"/><path class="cls-2" d="M83,37.62l-.46.65-.22.31"/><path class="cls-2" d="M82.29,38.58,82,39"/><path class="cls-2" d="M82,39l-4.26,5.71-1,1.17"/><path class="cls-2" d="M78.86,47.61,88.2,52l.5.2"/><path class="cls-2" d="M73.26,54.24l11.84,6,.54.27"/><path class="cls-2" d="M76.66,45.89l-1,1.12"/><path class="cls-2" d="M46.26,48.29l.25-.4L56.74,32l.33-.51"/><path class="cls-2" d="M33.86,15.36l.24-.52,2.55-6.21L36.92,8"/><path class="cls-2" d="M43.63,7.94l-.28.69L38.6,20.44l-.24.59"/><path class="cls-2" d="M30.33,31.27l-.39.41L27,34.87l-.27.31"/><path class="cls-2" d="M22.1,61.67l-.44.55-6.45,8.15-.94,1.76-.38.52"/><path class="cls-2" d="M26.75,35.18l-.42-.32-9.87-7.25L16,27.22"/><path class="cls-2" d="M50.9,26.93l-.57.37-.34.2-.47.15L47.38,28"/><path class="cls-2" d="M72.1,30.52l.41.19,5.18,2.42.55.18"/><path class="cls-2" d="M53.32,22l.4.18,2.79,1.35L69.1,29.14l2,.84.65.28.4.26"/><path class="cls-2" d="M14.44,36l.13-.71,1.31-7.55.09-.48"/><path class="cls-2" d="M66.89,39.15l-.43-.32-9-7-.36-.3-5.86-4.36-.31-.24"/><path class="cls-2" d="M37.17,72.44l.53-.59,2-1.84,10.4-9.63,3.72-3.56.69-.69.5-.58,3.31-3.91.4-.39L58.9,51l6.3-9.18,1.7-2.68.27-.46,4.52-7.39.46-.78L72.4,30,76,22.17l.39-.82.3-.73,4.6-10.93L81.61,9"/><path class="cls-2" d="M2.9,10.32l.31.38L6.9,15l.29.45.16.33"/><path class="cls-2" d="M38.1,40l-.56.72L32.3,47.62l-.67.89-2.35,3.35-.13.19-.35.81-6.29,8.28-.39.53"/><path class="cls-2" d="M47.38,28l-.55.41-.48.61L38.59,39.26l-.53.73"/><path class="cls-2" d="M4.31,48.75l.28-.46,4.14-5L9,43l5.31-6.55.15-.5"/><path class="cls-2" d="M37.17,72.44l-.43-.58L31,67.94l-.13-.07-8-5.69-.7-.51-.48-.35-8.12-5.88L9,52.1,5.1,49.33l-.8-.58"/><path class="cls-2" d="M21.6,41l.32-.36,3.57-4,.57-.71.69-.78"/><path class="cls-2" d="M18,16.44l.6.74,2.5,3,.3.35L30,30.8l.34.42.6.59,1.44,1.63,5,5.53L38,40"/><path class="cls-2" d="M21.1,20.23l.51-.41,9.49-7.76"/><path class="cls-2" d="M16,27.22l.13-.58,1.14-5.94.1-.57.14-.74.37-1.9.15-1"/><path class="cls-2" d="M82.33,7.38l.58-2.76.2-1"/><path class="cls-2" d="M7.35,15.8l.18.35.34.33,8.57,3.42.88.23"/><path class="cls-2" d="M59.93,8l.07.81L58.1,13l-.25.48-.44.79-.84,1.37-2.9,5.64-.39.76"/><path class="cls-2" d="M76.41,21.35,75.79,21l-1.3-.59L62.34,15.32l-3.67-1.54-.78-.34"/><path class="cls-2" d="M14.44,36l.41.3L18.78,39l2.82,2,.5.4,5.57,4.19,3,2.21.95.7"/><path class="cls-2" d="M17.46,8.05H59.94"/><path class="cls-2" d="M11.71,8.25l1.66-.14,4.09-.06"/><path class="cls-2" d="M59.93,8H61.1l7,.08H79.44l1.15.44,1,.49"/><path class="cls-2" d="M18,16.44l.18-1,1.19-6.55.16-.8"/><path class="cls-2" d="M78.28,33.31l1.33,1.55,2.19,2.58.4.48"/><path class="cls-2" d="M.24,25.63l.72.54,3.53,2.61,9.35,6.75.6.43"/><path class="cls-2" d="M82.2,37.9l.31.37"/><path class="cls-2" d="M81.6,9,82,8l.29-.63"/><path class="cls-2" d="M31.1,12.06l.4-.36.49-3L32.1,8"/><path class="cls-2" d="M53.32,22l-2.15,4.34-.27.57"/><path class="cls-2" d="M11.71,8.25l.93,1.92,4.65,5.41.69.89"/><path class="cls-2" d="M38.1,40l.4.52L43,45.15l.73.77,2.55,2.37.42.39,4,3.71,3.38,3.2.45.54"/><rect class="cls-3" x="17.25" y="51.75" width="2.5" height="2.5"/><path class="cls-4" d="M18.56,50.89a2,2,0,0,0-2,2c0,1.6,2,3,2,3s2-1.36,2-3A2,2,0,0,0,18.56,50.89Zm.34.91h.22v.34H18.9Zm-.91,0h.22v.34H18Zm1.59.68h-.23v.57a.45.45,0,0,1-.45.45h-.23v.57h-.23V53.5h-.23a.45.45,0,0,1-.45-.45v-.57h-.23v-.23h2Z"/><path class="cls-4" d="M18.21,53.28h.69a.23.23,0,0,0,.22-.23v-.57H18v.57A.23.23,0,0,0,18.21,53.28Z"/><rect class="cls-3" x="71.04" y="41.6" width="3" height="3"/><path class="cls-4" d="M71.87,43.53a.67.67,0,0,1,.64-.69h0a.67.67,0,0,1,.68.64v.73h.27V42.57H71.6v1.64h.27Z"/><rect class="cls-4" x="71.6" y="42.03" width="1.91" height="0.27"/><path class="cls-4" d="M72.56,40.39a2.46,2.46,0,0,0-2.46,2.45c0,1.91,2.46,3.55,2.46,3.55S75,44.75,75,42.84A2.45,2.45,0,0,0,72.56,40.39ZM73.92,42h-.14v2.18h.14v.27H73v-.95a.38.38,0,0,0-.36-.41h0a.38.38,0,0,0-.41.36v1h-1v-.27h.14V42h-.14v-.28h2.73Z"/><polygon class="cls-2" points="4.51 0 4.13 0 8.3 5.01 9.87 7.01 10.72 7.7 11.72 8.28 4.51 0"/><polygon class="cls-2" points="73.55 8.06 73.75 7.21 75.06 1.43 73.55 8.06"/><polygon class="cls-2" points="75.39 0 75.06 1.43 75.39 0 75.39 0"/><polygon class="cls-2" points="70.62 0 69.04 7.19 68.88 8.02 70.64 0 70.62 0"/><polygon class="cls-2" points="61.55 0 61.4 0.65 59.92 7.21 59.92 7.96 61.63 0 61.55 0"/><polygon class="cls-2" points="34.65 0 34.71 7.99 34.71 0 34.65 0"/><polygon class="cls-2" points="21.03 0 19.51 8.15 19.66 7.44 21.05 0 21.03 0"/><polygon class="cls-2" points="61.88 78 68.94 65.64 68.59 66.1 67.69 67.28 65.52 70.06 63.79 72.36 63.38 73.01 62.73 74.13 61.47 76.51 60.82 78 61.88 78"/><polygon class="cls-2" points="11.93 0 11.99 0.09 12.44 0.73 11.94 0 11.93 0"/><polygon class="cls-2" points="17.46 8.05 15.86 5.72 16.91 7.26 17.46 8.05"/><polygon class="cls-2" points="14.31 3.44 13.81 2.69 13.26 1.9 12.44 0.73 15.86 5.72 14.31 3.44"/><polygon class="cls-2" points="78.73 78 78.81 77.78 80.74 72.78 80.92 72.29 81 71.72 78.72 78 78.73 78"/><polygon class="cls-2" points="63.44 72.99 66.89 74.9 69.79 76.36 63.44 72.99"/><polygon class="cls-2" points="73 78 72.25 77.59 69.79 76.36 72.89 78 73 78"/><polygon class="cls-2" points="56.08 63.79 53.01 67.79 50.2 71.44 49.53 72.3 47.8 75.07 47.49 75.76 46.66 77.6 46.51 78 46.62 78 58.79 60.42 56.44 63.33 56.08 63.79"/><polygon class="cls-2" points="59.24 59.78 58.79 60.42 58.87 60.33 59.24 59.78"/><polygon class="cls-2" points="34.47 78 37.17 72.44 36.5 73.49 34.69 77.26 34.34 78 34.47 78"/><polygon class="cls-2" points="45.92 78 37.17 72.44 37.89 72.93 39.89 74.24 45.82 78 45.92 78"/><polygon class="cls-2" points="35.76 78 35.23 77.62 34.69 77.35 35.71 78 35.76 78"/><polygon class="cls-2" points="16.09 74.19 14.44 73.06 13.91 72.69 13.53 72.44 8.1 68.8 7.56 68.44 7 68.08 4.81 66.79 1.35 65.06 0.61 64.72 0 64.43 0 66.29 17 78 17 78 20.73 78 16.09 74.19"/><polygon class="cls-2" points="23.1 78 23.1 78 30.45 68.37 30.83 67.87 23.1 78"/><polygon class="cls-2" points="11.5 78 13.91 72.65 13.57 73.26 10.99 78 11.5 78"/><polygon class="cls-2" points="7.56 68.44 7.16 69.42 7.34 69 7.56 68.44"/><polygon class="cls-2" points="3.63 78 7.16 69.42 5.99 72.1 3.52 77.44 3.3 78 3.63 78"/><polygon class="cls-2" points="0 8.14 11.72 8.21 9.26 8.02 1.26 8.08 0.86 8.08 0 8.08 0 8.14"/><polygon class="cls-2" points="0 15.46 15.97 27.22 15.41 26.8 5.75 19.61 5 19.05 4.26 18.52 0 15.41 0 15.46"/><polygon class="cls-2" points="0 24.25 0 26.02 0.28 25.63 0.73 25.02 1.98 23.24 4.49 19.75 5 19.05 6.88 16.44 7.35 15.83 11.35 10.28 11.67 8.28 0 24.25"/><polygon class="cls-2" points="0 37.01 7.13 42.14 0 36.98 0 37.01"/><polygon class="cls-2" points="8.73 43.29 7.13 42.14 8.32 43 8.73 43.29"/><polygon class="cls-2" points="81.6 9.02 82.28 9.3 82.59 9.43 81.6 9.02"/><polygon class="cls-2" points="93 13.66 92.28 13.35 82.59 9.43 93 13.69 93 13.66"/><polygon class="cls-2" points="82.71 66.69 82.53 67.36 82.37 68.04 81.1 71.04 81 71.68 83.8 64.35 83.71 64.53 82.71 66.69"/><polygon class="cls-2" points="93 40.23 83.8 64.35 85.35 61.17 85.67 60.52 85.95 59.79 88.48 52.79 88.74 52.11 89 51.39 92 43.46 92.19 42.96 92.43 42.28 93 40.67 93 40.23"/><polygon class="cls-2" points="76.37 21.35 77.1 21.71 77.86 21.93 78.38 22.1 76.37 21.35"/><polygon class="cls-2" points="93 27 91.75 26.49 89.75 25.85 89.16 25.65 88.16 25.31 78.38 22.1 93 27.56 93 27"/><polygon class="cls-2" points="93 34.56 78.26 33.28 80.1 33.44 84.41 33.87 85.56 33.97 86 33.97 93 34.56 93 34.56"/><rect class="cls-3" x="73.85" y="8.65" width="3.5" height="4"/><path class="cls-4" d="M75.56,7.39a3.27,3.27,0,0,0-3.28,3.27c0,2.55,3.28,4.73,3.28,4.73s3.27-2.18,3.27-4.73A3.27,3.27,0,0,0,75.56,7.39Zm.54,1.45h.36v.55H76.1Zm-1.45,0H75v.55h-.36Zm2.54,1.09h-.36v.91a.73.73,0,0,1-.73.73h-.36v.91h-.37v-.91H75a.73.73,0,0,1-.73-.73V9.93h-.36V9.57h3.27Z"/><path class="cls-4" d="M75,11.21H76.1a.37.37,0,0,0,.36-.37V9.93H74.65v.91A.37.37,0,0,0,75,11.21Z"/></svg>